<svg xmlns="http://www.w3.org/2000/svg" viewBox="0 0 900 700"><rect width="900" height="700" fill="#ccecff"/><g fill="none" stroke="#2d8bd3" stroke-width="5" opacity=".3"><circle cx="100" cy="110" r="52"/><circle cx="790" cy="560" r="74"/><path d="M30 530 180 380M720 170l140-140M350 80h200M350 620h200"/><path d="m100 270 25 55 60 7-45 39 13 59-53-31-53 31 13-59-45-39 60-7Z"/></g><g fill="#1264a0" opacity=".22" font-family="Arial,sans-serif" font-weight="900"><text x="78" y="175" font-size="70">+</text><text x="735" y="130" font-size="72">×</text><text x="180" y="590" font-size="66">÷</text><text x="710" y="390" font-size="60">7</text><text x="120" y="430" font-size="54">9</text></g><g fill="#ffd447"><circle cx="280" cy="170" r="10"/><circle cx="650" cy="250" r="12"/><circle cx="270" cy="500" r="8"/></g></svg>
